<svg xmlns="http://www.w3.org/2000/svg" width="38" height="10" viewBox="0 0 38 10" fill="none"><path d="M36.9706 5L37.3241 5.35355C37.4179 5.25978 37.4706 5.13261 37.4706 5C37.4706 4.86739 37.4179 4.74021 37.3241 4.64644L36.9706 5ZM37.3241 4.64644L33.7886 1.11091C33.5933 0.915647 33.2767 0.915647 33.0815 1.11091C32.8862 1.30617 32.8862 1.62275 33.0815 1.81802L36.617 5.35355L37.3241 4.64644ZM36.617 4.64644L33.0815 8.18198C32.8862 8.37724 32.8862 8.69382 33.0815 8.88908C33.2767 9.08434 33.5933 9.08434 33.7886 8.88908L37.3241 5.35355L36.617 4.64644ZM36.9706 4.49936H0.500631C0.22414 4.49936 0 4.72351 0 5C0 5.27649 0.22414 5.50063 0.500631 5.50063H36.9706V4.49936Z" fill="white"/></svg>