<svg width="159" height="32" viewBox="0 0 159 32" fill="none" xmlns="http://www.w3.org/2000/svg">
<path d="M7.99908 14.5693C11.6273 14.5693 14.5685 11.6281 14.5685 7.99993C14.5685 4.37176 11.6273 1.43054 7.99908 1.43054C4.3709 1.43054 1.42969 4.37176 1.42969 7.99993C1.42969 11.6281 4.3709 14.5693 7.99908 14.5693Z" fill="url(#paint0_linear_1153_2411)"/>
<path d="M7.99908 14.5693C11.6273 14.5693 14.5685 11.6281 14.5685 7.99993C14.5685 4.37176 11.6273 1.43054 7.99908 1.43054C4.3709 1.43054 1.42969 4.37176 1.42969 7.99993C1.42969 11.6281 4.3709 14.5693 7.99908 14.5693Z" fill="url(#paint1_linear_1153_2411)"/>
<path d="M23.9991 30.5694C27.6272 30.5694 30.5685 27.6282 30.5685 24C30.5685 20.3718 27.6272 17.4306 23.9991 17.4306C20.3709 17.4306 17.4297 20.3718 17.4297 24C17.4297 27.6282 20.3709 30.5694 23.9991 30.5694Z" fill="url(#paint2_linear_1153_2411)"/>
<path d="M23.9991 30.5694C27.6272 30.5694 30.5685 27.6282 30.5685 24C30.5685 20.3718 27.6272 17.4306 23.9991 17.4306C20.3709 17.4306 17.4297 20.3718 17.4297 24C17.4297 27.6282 20.3709 30.5694 23.9991 30.5694Z" fill="url(#paint3_linear_1153_2411)"/>
<path d="M23.9991 30.5694C27.6272 30.5694 30.5685 27.6282 30.5685 24C30.5685 20.3718 27.6272 17.4306 23.9991 17.4306C20.3709 17.4306 17.4297 20.3718 17.4297 24C17.4297 27.6282 20.3709 30.5694 23.9991 30.5694Z" fill="url(#paint4_linear_1153_2411)"/>
<path d="M7.99908 1.43054C4.37655 1.43054 1.42969 4.37741 1.42969 7.99993C1.42969 11.6225 4.37655 14.5693 7.99908 14.5693C11.6216 14.5693 14.5685 11.6225 14.5685 7.99993C14.5685 4.37741 11.6216 1.43054 7.99908 1.43054Z" fill="url(#paint5_linear_1153_2411)"/>
<path d="M16 0V8C16 12.4187 12.4187 16 8 16H0V32H16V24C16 19.5813 19.5813 16 24 16H32V0H16ZM8 30.5694C4.37748 30.5694 1.43061 27.6225 1.43061 24C1.43061 20.3775 4.37748 17.4306 8 17.4306C11.6225 17.4306 14.5694 20.3775 14.5694 24C14.5694 27.6225 11.6225 30.5694 8 30.5694ZM24 14.5694C20.3775 14.5694 17.4306 11.6225 17.4306 8C17.4306 4.37748 20.3775 1.43061 24 1.43061C27.6225 1.43061 30.5694 4.37748 30.5694 8C30.5694 11.6225 27.6225 14.5694 24 14.5694Z" fill="url(#paint6_linear_1153_2411)"/>
<path fill-rule="evenodd" clip-rule="evenodd" d="M76.0885 6.58194C78.1338 6.58194 79.6089 7.15207 80.5139 8.29235C81.4189 9.43262 81.8713 11.4598 81.8713 14.3557C81.8713 17.2607 81.3374 19.2788 80.2605 20.419C79.1836 21.5593 77.3012 22.1295 74.5953 22.1295C73.6632 22.1295 72.179 22.039 70.1519 21.858L69.1383 21.7675V0.699585H72.36V7.45977C73.7356 6.88058 74.9754 6.58194 76.0885 6.58194ZM74.5953 19.2426C76.1881 19.2426 77.2379 18.8715 77.7718 18.1295C78.2967 17.3874 78.5591 16.1204 78.5591 14.3286C78.5591 12.5457 78.3329 11.2878 77.8894 10.5548C77.446 9.83081 76.713 9.46882 75.6994 9.46882C74.7492 9.46882 73.7899 9.61361 72.8397 9.91226L72.36 10.0571V19.1159C73.455 19.2064 74.1971 19.2426 74.5953 19.2426Z" fill="url(#paint7_linear_1153_2411)"/>
<path d="M40.2695 21.8037H51.7084V18.8535H43.5727V1.39645H40.2695V21.8037Z" fill="url(#paint8_linear_1153_2411)"/>
<path fill-rule="evenodd" clip-rule="evenodd" d="M65.0659 18.2923V11.496C65.0659 9.78555 64.6586 8.54572 63.8532 7.74029C63.0478 6.95296 61.7356 6.56383 59.9166 6.56383C58.0976 6.56383 56.1066 6.82627 53.9437 7.34211L54.0614 9.64075L55.0116 9.5774C56.9211 9.42356 58.5048 9.34211 59.7808 9.34211C60.4596 9.34211 60.9754 9.505 61.3193 9.82174C61.6722 10.1385 61.8442 10.6905 61.8442 11.4869V12.5638L57.998 12.8896C56.3329 13.0254 55.093 13.4326 54.2876 14.1113C53.4822 14.781 53.084 15.876 53.084 17.3874C53.084 20.5457 54.5681 22.1294 57.5274 22.1294C59.1383 22.1294 60.731 21.7584 62.3238 21.0254C63.2559 21.7584 64.5772 22.1294 66.2876 22.1294L66.3781 19.6589C65.9437 19.6046 65.6179 19.4688 65.4098 19.2607C65.2016 19.0525 65.084 18.7267 65.0659 18.2923ZM56.3328 17.4236C56.3328 16.057 57.0206 15.3059 58.3872 15.1883L61.8442 14.8625V18.8172L61.3102 18.9982C60.1971 19.324 59.1473 19.4779 58.1519 19.4779C56.9392 19.4779 56.3328 18.7901 56.3328 17.4236Z" fill="url(#paint9_linear_1153_2411)"/>
<path d="M87.5274 6.60911C87.5274 4.8444 88.7853 3.95753 91.3102 3.95753C92.4686 3.95753 94.4324 4.12043 97.1926 4.43717L97.4641 1.75843L96.4233 1.57744C94.3419 1.2245 92.5319 1.0435 91.0025 1.0435C88.8849 1.0435 87.2197 1.51409 86.0161 2.45527C84.8125 3.40549 84.2152 4.79916 84.2152 6.64531C84.2152 8.49146 84.6948 9.84893 85.645 10.6996C86.6043 11.5503 88.0523 12.22 89.998 12.7087C91.9437 13.1974 93.2016 13.6408 93.7536 14.048C94.3057 14.4553 94.5862 15.0888 94.5862 15.9394C94.5862 18.1204 93.3554 19.2155 90.8939 19.2155C89.4821 19.2155 87.4369 19.0345 84.7582 18.6815L84.4324 21.3331L85.5093 21.5412C87.5545 21.9394 89.4188 22.1385 91.1111 22.1385C93.2107 22.1385 94.8758 21.6046 96.0975 20.5458C97.3192 19.4779 97.9256 17.8761 97.9256 15.7313C97.9256 14.039 97.5093 12.8082 96.6767 12.0209C95.8441 11.2335 94.4052 10.5548 92.369 9.99373C90.3328 9.4236 89.0206 8.95301 88.4233 8.56387C87.826 8.17472 87.5274 7.52314 87.5274 6.60911Z" fill="url(#paint10_linear_1153_2411)"/>
<path fill-rule="evenodd" clip-rule="evenodd" d="M111.727 19.1249L112.559 19.0344L112.623 21.4507C110.36 21.9032 108.351 22.1385 106.604 22.1385C104.396 22.1385 102.813 21.5322 101.853 20.3195C100.894 19.1068 100.405 17.1702 100.405 14.5095C100.405 9.22448 102.559 6.58194 106.867 6.58194C111.039 6.58194 113.129 8.85343 113.129 13.4055L112.921 15.7313H103.681C103.699 16.962 103.971 17.867 104.487 18.4462C105.003 19.0254 105.962 19.315 107.374 19.315C108.785 19.315 110.233 19.2426 111.727 19.1249ZM109.935 13.2245C109.935 11.7584 109.699 10.7267 109.238 10.1385C108.767 9.55027 107.98 9.26067 106.867 9.26067C105.754 9.26067 104.948 9.56837 104.442 10.1838C103.935 10.7991 103.672 11.8127 103.654 13.2245H109.935Z" fill="url(#paint11_linear_1153_2411)"/>
<path d="M116.251 21.8037H119.491V10.238L119.935 10.0571C120.867 9.65887 121.844 9.45977 122.858 9.45977C123.926 9.45977 124.641 9.79461 124.984 10.4733C125.337 11.1521 125.509 12.2924 125.509 13.9032V21.8037H128.731V13.8218C128.731 11.2426 128.369 9.38737 127.645 8.2652C126.921 7.14303 125.573 6.58194 123.582 6.58194C122.297 6.58194 120.921 6.99823 119.473 7.83081V6.90773H116.251V21.8037Z" fill="url(#paint12_linear_1153_2411)"/>
<path d="M142.858 9.97562C140.514 9.65888 138.812 9.49598 137.763 9.49598C136.713 9.49598 135.98 9.62268 135.573 9.86702C135.165 10.1114 134.966 10.5096 134.966 11.0435C134.966 11.5774 135.193 11.9575 135.636 12.1747C136.079 12.3919 137.138 12.6453 138.794 12.9349C140.45 13.2245 141.627 13.677 142.324 14.2924C143.021 14.9078 143.365 16.0028 143.365 17.5684C143.365 19.134 142.867 20.2924 141.862 21.0254C140.858 21.7584 139.392 22.1295 137.464 22.1295C136.251 22.1295 134.722 21.9575 132.876 21.6227L131.953 21.4688L132.07 18.7539C134.45 19.0706 136.17 19.2335 137.229 19.2335C138.288 19.2335 139.03 19.1068 139.482 18.8444C139.926 18.582 140.152 18.1566 140.152 17.5593C140.152 16.962 139.935 16.5548 139.509 16.3195C139.084 16.0933 138.061 15.8399 136.441 15.5774C134.822 15.3059 133.636 14.8896 132.885 14.3105C132.134 13.7313 131.754 12.6815 131.754 11.1521C131.754 9.62268 132.279 8.48241 133.319 7.72223C134.36 6.97109 135.699 6.591 137.328 6.591C138.604 6.591 140.161 6.7539 142.007 7.07064L142.93 7.25163L142.858 9.97562Z" fill="url(#paint13_linear_1153_2411)"/>
<path fill-rule="evenodd" clip-rule="evenodd" d="M157.935 19.0344L157.102 19.1249C155.618 19.2426 154.161 19.315 152.749 19.315C151.337 19.315 150.378 19.0254 149.862 18.4462C149.347 17.867 149.075 16.962 149.057 15.7313H158.297L158.505 13.4055C158.505 8.85343 156.414 6.58194 152.242 6.58194C147.935 6.58194 145.781 9.22448 145.781 14.5095C145.781 17.1702 146.27 19.1068 147.229 20.3195C148.188 21.5322 149.772 22.1385 151.98 22.1385C153.727 22.1385 155.736 21.9032 157.998 21.4507L157.935 19.0344ZM154.623 10.1385C155.084 10.7267 155.319 11.7584 155.319 13.2245H149.039C149.057 11.8127 149.319 10.7991 149.826 10.1838C150.333 9.56837 151.138 9.26067 152.251 9.26067C153.365 9.26067 154.152 9.55027 154.623 10.1385Z" fill="url(#paint14_linear_1153_2411)"/>
<path d="M67.6453 29.9575V27.0616H68.6227V26.6272H67.6544V26.3286C67.6544 26.0209 67.6906 25.8127 67.7539 25.7041C67.8173 25.5955 67.9349 25.5412 68.0978 25.5412C68.2607 25.5412 68.4599 25.5412 68.7132 25.5503L68.7222 25.134L68.0435 25.0887C67.7087 25.0887 67.4734 25.1702 67.3376 25.3421C67.2019 25.5141 67.1385 25.8399 67.1385 26.3105V26.6091H66.7132V27.0435H67.1385V29.9575H67.6453Z" fill="#143651"/>
<path d="M49.1928 29.9485V25.1431H49.6996V27.9847L50.2245 27.9575L51.1838 26.6001H51.7539L50.6589 28.1385L51.7991 29.9485H51.229L50.2335 28.3919L49.7086 28.41V29.9485H49.1928Z" fill="#143651"/>
<path d="M40.2969 25.315V29.9485H40.8127V25.867H40.9032L42.2516 29.7856H42.8308L44.1792 25.867H44.2697V29.9485H44.7856V25.315H43.8534L42.5412 29.2336L41.229 25.315H40.2969Z" fill="#143651"/>
<path fill-rule="evenodd" clip-rule="evenodd" d="M48.1973 29.324V27.6136C48.1973 27.2426 48.1068 26.9711 47.9348 26.7991C47.7629 26.6272 47.4914 26.5367 47.1113 26.5367C46.7312 26.5367 46.2968 26.5819 45.8081 26.6815L45.8262 27.0616L46.0344 27.0435C46.4235 26.9982 46.7855 26.9801 47.1475 26.9801C47.3104 26.9801 47.4462 27.0254 47.5457 27.1249C47.6452 27.2245 47.6905 27.3874 47.6905 27.6136V27.9032L46.6407 28.0028C46.2878 28.0299 46.0253 28.1295 45.8624 28.2833C45.6995 28.4372 45.6181 28.6815 45.6181 29.0073C45.6181 29.3331 45.6995 29.5865 45.8624 29.7584C46.0253 29.9304 46.2606 30.0209 46.5683 30.0209C46.9665 30.0209 47.3738 29.9304 47.7719 29.7494C47.9529 29.9304 48.2154 30.0209 48.5683 30.0209L48.5864 29.6227C48.3421 29.5865 48.2063 29.4869 48.1973 29.324ZM46.6407 29.5955C46.3059 29.5955 46.1339 29.3874 46.1339 28.9801C46.1339 28.7901 46.1701 28.6453 46.2606 28.5457C46.3511 28.4462 46.4959 28.3919 46.695 28.3738L47.6905 28.2833V29.3874L47.5367 29.4417C47.2471 29.5412 46.9484 29.5955 46.6407 29.5955Z" fill="#143651"/>
<path fill-rule="evenodd" clip-rule="evenodd" d="M54.7765 29.5141L54.5865 29.5322C54.2426 29.5593 53.9077 29.5774 53.5819 29.5774C53.2561 29.5774 53.0208 29.4869 52.8851 29.3059C52.7494 29.1249 52.686 28.8534 52.686 28.4824H54.8942L54.9213 28.1023C54.9213 27.5684 54.8127 27.1702 54.5865 26.9168C54.3602 26.6634 54.0254 26.5367 53.5729 26.5367C52.6408 26.5367 52.1702 27.1249 52.1702 28.3014C52.1702 28.8897 52.2697 29.324 52.4688 29.6046C52.6679 29.8851 53.0118 30.0209 53.4914 30.0209C53.8534 30.0209 54.2878 29.9847 54.7946 29.9123L54.7765 29.5141ZM54.2064 27.2154C54.3421 27.3874 54.4055 27.677 54.4055 28.0842V28.0933H52.6589C52.6679 27.6951 52.7403 27.4145 52.8941 27.2335C53.048 27.0525 53.2652 26.962 53.5638 26.962C53.8625 26.962 54.0706 27.0435 54.2064 27.2154Z" fill="#143651"/>
<path fill-rule="evenodd" clip-rule="evenodd" d="M59.5277 27.6136V29.324C59.5367 29.4869 59.6725 29.5865 59.9168 29.6227L59.8987 30.0209C59.5458 30.0209 59.2833 29.9304 59.1023 29.7494C58.7041 29.9304 58.2969 30.0209 57.8987 30.0209C57.591 30.0209 57.3557 29.9304 57.1928 29.7584C57.0299 29.5865 56.9485 29.3331 56.9485 29.0073C56.9485 28.6815 57.0299 28.4372 57.1928 28.2833C57.3557 28.1295 57.6182 28.0299 57.9711 28.0028L59.0209 27.9032V27.6136C59.0209 27.3874 58.9756 27.2245 58.8761 27.1249C58.7765 27.0254 58.6408 26.9801 58.4779 26.9801C58.1159 26.9801 57.7539 26.9982 57.3648 27.0435L57.1566 27.0616L57.1385 26.6815C57.6272 26.5819 58.0616 26.5367 58.4417 26.5367C58.8218 26.5367 59.0933 26.6272 59.2652 26.7991C59.4372 26.9711 59.5277 27.2426 59.5277 27.6136ZM57.4643 28.9801C57.4643 29.3874 57.6363 29.5955 57.9711 29.5955C58.2788 29.5955 58.5774 29.5412 58.867 29.4417L59.0209 29.3874V28.2833L58.0254 28.3738C57.8263 28.3919 57.6815 28.4462 57.591 28.5457C57.5005 28.6453 57.4643 28.7901 57.4643 28.9801Z" fill="#143651"/>
<path fill-rule="evenodd" clip-rule="evenodd" d="M64.5683 29.9485V25.1431H64.0796V26.6272C63.7901 26.5639 63.5186 26.5367 63.2561 26.5367C62.7584 26.5367 62.3964 26.6906 62.1792 26.9711C61.962 27.2517 61.8534 27.7222 61.8534 28.3738C61.8534 29.0254 61.971 29.4688 62.2154 29.7132C62.324 29.8308 62.4507 29.9213 62.5864 29.9575C62.7222 29.9937 62.876 30.0209 63.057 30.0209C63.3919 30.0209 63.7267 29.9213 64.0706 29.7222V29.9485H64.5683ZM63.1294 29.5684C63.0027 29.5684 62.9032 29.5503 62.8217 29.5231C62.7493 29.496 62.6679 29.4326 62.5955 29.3331C62.4416 29.1612 62.3602 28.8082 62.3602 28.2924C62.3602 27.8399 62.4235 27.505 62.5593 27.2878C62.686 27.0706 62.9213 26.9621 63.2652 26.9621C63.5095 26.9621 63.7719 26.9892 64.0615 27.0435V29.315L63.9258 29.3783C63.84 29.4212 63.7216 29.456 63.5784 29.4981L63.5548 29.505C63.4009 29.5503 63.2561 29.5684 63.1294 29.5684Z" fill="#143651"/>
<path d="M65.5367 25.8489V25.2697H66.0435V25.8489H65.5367Z" fill="#143651"/>
<path d="M65.5367 29.9485V26.6001H66.0435V29.9485H65.5367Z" fill="#143651"/>
<path d="M69.8624 27.0616V29.9575H69.3556V27.0435H68.9303V26.6091H69.3556V26.3105C69.3556 25.8399 69.419 25.5141 69.5547 25.3421C69.6905 25.1702 69.9258 25.0887 70.2606 25.0887L70.9393 25.134L70.9303 25.5503C70.677 25.5412 70.478 25.5412 70.3152 25.5412C70.1523 25.5412 70.0344 25.5955 69.971 25.7041C69.9077 25.8127 69.8715 26.0209 69.8715 26.3286V26.6272H70.8398V27.0616H69.8624Z" fill="#143651"/>
<path fill-rule="evenodd" clip-rule="evenodd" d="M73.8444 29.5141L73.6543 29.5322C73.3104 29.5593 72.9756 29.5774 72.6498 29.5774C72.324 29.5774 72.0887 29.4869 71.953 29.3059C71.8172 29.1249 71.7539 28.8534 71.7539 28.4824H73.962L73.9892 28.1023C73.9892 27.5684 73.8806 27.1702 73.6543 26.9168C73.4281 26.6634 73.0932 26.5367 72.6408 26.5367C71.7086 26.5367 71.238 27.1249 71.238 28.3014C71.238 28.8897 71.3376 29.324 71.5367 29.6046C71.7358 29.8851 72.0797 30.0209 72.5593 30.0209C72.9213 30.0209 73.3557 29.9847 73.8625 29.9123L73.8444 29.5141ZM73.2742 27.2154C73.41 27.3874 73.4733 27.677 73.4733 28.0842V28.0933H71.7267C71.7358 27.6951 71.8082 27.4145 71.962 27.2335C72.1159 27.0525 72.3331 26.962 72.6317 26.962C72.9303 26.962 73.1385 27.0435 73.2742 27.2154Z" fill="#143651"/>
<path d="M74.7584 29.9485V26.6001H75.2562V27.0526C75.6453 26.7811 76.0525 26.6091 76.4779 26.5277V27.0345C76.2878 27.0707 76.0978 27.125 75.8896 27.1974C75.6815 27.2698 75.5276 27.3422 75.4281 27.3965L75.2562 27.487V29.9485H74.7584Z" fill="#143651"/>
<path fill-rule="evenodd" clip-rule="evenodd" d="M79.4733 29.5141L79.2833 29.5322C78.9394 29.5593 78.6046 29.5774 78.2788 29.5774C77.953 29.5774 77.7177 29.4869 77.5819 29.3059C77.4462 29.1249 77.3828 28.8534 77.3828 28.4824H79.591L79.6181 28.1023C79.6181 27.5684 79.5095 27.1702 79.2833 26.9168C79.057 26.6634 78.7222 26.5367 78.2697 26.5367C77.3376 26.5367 76.867 27.1249 76.867 28.3014C76.867 28.8897 76.9665 29.324 77.1656 29.6046C77.3647 29.8851 77.7086 30.0209 78.1883 30.0209C78.5503 30.0209 78.9846 29.9847 79.4914 29.9123L79.4733 29.5141ZM78.9032 27.2154C79.0389 27.3874 79.1023 27.677 79.1023 28.0842V28.0933H77.3557C77.3647 27.6951 77.4371 27.4145 77.591 27.2335C77.7448 27.0525 77.962 26.962 78.2607 26.962C78.5593 26.962 78.7675 27.0435 78.9032 27.2154Z" fill="#143651"/>
<path d="M80.8942 29.9485H80.3874V26.6001H80.8851V26.8353C81.2471 26.6362 81.591 26.5367 81.9258 26.5367C82.3693 26.5367 82.677 26.6544 82.8308 26.8987C82.9847 27.143 83.0571 27.5684 83.0571 28.1838V29.9485H82.5593V28.1928C82.5593 27.7313 82.5141 27.4055 82.4236 27.2426C82.3331 27.0706 82.134 26.9801 81.8353 26.9801C81.6905 26.9801 81.5457 26.9982 81.3829 27.0435C81.22 27.0887 81.1023 27.1249 81.0209 27.1702L80.8942 27.2335V29.9485Z" fill="#143651"/>
<path d="M85.9892 26.6182C85.6362 26.5639 85.3828 26.5367 85.238 26.5367C84.7403 26.5367 84.3783 26.6634 84.1702 26.9168C83.953 27.1702 83.8444 27.6136 83.8444 28.2562C83.8444 28.8987 83.9439 29.3421 84.143 29.6136C84.3421 29.8761 84.7041 30.0118 85.229 30.0118C85.4371 30.0118 85.7448 29.9847 86.1611 29.9213L86.143 29.505L85.3557 29.5684C84.9484 29.5684 84.686 29.4688 84.5593 29.2788C84.4326 29.0887 84.3692 28.7449 84.3692 28.2562C84.3692 27.7675 84.4416 27.4326 84.5774 27.2516C84.7131 27.0706 84.9665 26.9801 85.3466 26.9801C85.5095 26.9801 85.781 27.0073 86.1339 27.0435L86.1521 26.6362L85.9892 26.6182Z" fill="#143651"/>
<path fill-rule="evenodd" clip-rule="evenodd" d="M89.1476 29.5322L89.3377 29.5141L89.3467 29.9123C88.8399 29.9847 88.4055 30.0209 88.0435 30.0209C87.5639 30.0209 87.22 29.8851 87.0209 29.6046C86.8218 29.324 86.7223 28.8897 86.7223 28.3014C86.7223 27.1249 87.1929 26.5367 88.125 26.5367C88.5775 26.5367 88.9123 26.6634 89.1386 26.9168C89.3648 27.1702 89.4734 27.5684 89.4734 28.1023L89.4463 28.4824H87.2381C87.2381 28.8534 87.3015 29.1249 87.4372 29.3059C87.573 29.4869 87.8083 29.5774 88.134 29.5774C88.4598 29.5774 88.8037 29.5593 89.1476 29.5322ZM88.9666 28.0842C88.9666 27.677 88.9033 27.3874 88.7675 27.2154C88.6318 27.0435 88.4236 26.962 88.125 26.962C87.8263 26.962 87.6001 27.0525 87.4553 27.2335C87.3105 27.4145 87.2291 27.6951 87.22 28.0933H88.9666V28.0842Z" fill="#143651"/>
<path d="M90.2154 29.1883V29.9485H90.7674V29.1883H90.2154Z" fill="#143651"/>
<path d="M96.0525 29.876C95.591 29.9665 95.1837 30.0208 94.8127 30.0208C94.4416 30.0208 94.1521 29.9666 93.9258 29.867C93.6996 29.7675 93.5276 29.6136 93.4009 29.3964C93.2742 29.1792 93.1928 28.9439 93.1475 28.6634C93.1023 28.3828 93.0751 28.048 93.0751 27.6317C93.0751 27.2154 93.1023 26.8806 93.1475 26.6C93.1928 26.3195 93.2833 26.0751 93.4009 25.8579C93.5276 25.6408 93.6996 25.4869 93.9168 25.3874C94.134 25.2878 94.4326 25.2426 94.7855 25.2426C95.1385 25.2426 95.5638 25.2878 96.0435 25.3874L96.0254 25.8218C95.5729 25.7403 95.1747 25.7041 94.8217 25.7041C94.3331 25.7041 94.0073 25.8489 93.8444 26.1475C93.6815 26.4371 93.6091 26.9349 93.6091 27.6408C93.6091 27.9937 93.6272 28.2742 93.6543 28.4914C93.6815 28.7086 93.7358 28.8987 93.8263 29.0706C93.9077 29.2426 94.0344 29.3693 94.1973 29.4417C94.3602 29.5141 94.5955 29.5503 94.9122 29.5503C95.229 29.5503 95.6 29.5141 96.0254 29.4326L96.0525 29.876Z" fill="#143651"/>
<path d="M96.8127 29.9485H97.3195V27.1793L97.4462 27.134C97.7086 27.0345 97.9801 26.9802 98.2607 26.9802C98.5593 26.9802 98.7493 27.0706 98.8398 27.2426C98.9303 27.4055 98.9756 27.7313 98.9756 28.1928V29.9485H99.4824V28.1838C99.4824 27.5684 99.4009 27.1431 99.2471 26.8987C99.0932 26.6544 98.7855 26.5367 98.3421 26.5367C98.0073 26.5367 97.6634 26.6182 97.3104 26.7901V25.1431H96.8127V29.9485Z" fill="#143651"/>
<path fill-rule="evenodd" clip-rule="evenodd" d="M100.261 28.2743C100.261 27.6589 100.369 27.2245 100.586 26.953C100.804 26.6815 101.175 26.5457 101.7 26.5457C102.215 26.5457 102.586 26.6815 102.804 26.953C103.021 27.2245 103.129 27.6679 103.129 28.2743C103.129 28.8806 103.03 29.3331 102.822 29.6046C102.614 29.8851 102.243 30.0209 101.7 30.0209C101.157 30.0209 100.776 29.8851 100.577 29.6046C100.36 29.324 100.261 28.8806 100.261 28.2743ZM100.776 28.2652C100.776 28.7539 100.84 29.0978 100.957 29.2969C101.075 29.496 101.329 29.5955 101.7 29.5955C102.08 29.5955 102.324 29.496 102.442 29.3059C102.559 29.1159 102.614 28.772 102.614 28.2743C102.614 27.7856 102.55 27.4417 102.424 27.2607C102.297 27.0797 102.053 26.9801 101.709 26.9801C101.356 26.9801 101.12 27.0706 100.985 27.2607C100.84 27.4326 100.776 27.7675 100.776 28.2652Z" fill="#143651"/>
<path fill-rule="evenodd" clip-rule="evenodd" d="M104.125 26.953C103.908 27.2245 103.799 27.6589 103.799 28.2743C103.799 28.8806 103.899 29.324 104.107 29.6046C104.306 29.8851 104.686 30.0209 105.229 30.0209C105.772 30.0209 106.143 29.8851 106.351 29.6046C106.559 29.3331 106.659 28.8806 106.659 28.2743C106.659 27.6679 106.55 27.2245 106.333 26.953C106.116 26.6815 105.754 26.5457 105.229 26.5457C104.713 26.5457 104.342 26.6815 104.125 26.953ZM104.496 29.2969C104.378 29.0978 104.315 28.7539 104.315 28.2652C104.315 27.7675 104.378 27.4326 104.514 27.2607C104.65 27.0706 104.885 26.9801 105.238 26.9801C105.591 26.9801 105.835 27.0797 105.962 27.2607C106.089 27.4417 106.152 27.7856 106.152 28.2743C106.152 28.772 106.098 29.1159 105.98 29.3059C105.863 29.496 105.618 29.5955 105.238 29.5955C104.858 29.5955 104.614 29.496 104.496 29.2969Z" fill="#143651"/>
<path d="M108.532 26.9892C108.044 26.9892 107.799 27.1611 107.799 27.496C107.799 27.6498 107.854 27.7584 107.971 27.8308C108.08 27.8942 108.333 27.9666 108.731 28.0299C109.13 28.1023 109.41 28.1928 109.573 28.3195C109.736 28.4462 109.817 28.6815 109.817 29.0254C109.817 29.3693 109.709 29.6227 109.482 29.7856C109.256 29.9485 108.939 30.0299 108.514 30.0299C108.234 30.0299 107.908 29.9937 107.537 29.9394L107.338 29.9032L107.365 29.4688C107.872 29.5412 108.261 29.5865 108.514 29.5865C108.768 29.5865 108.967 29.5412 109.102 29.4598C109.238 29.3783 109.311 29.2426 109.311 29.0435C109.311 28.8444 109.256 28.7177 109.139 28.6453C109.021 28.5729 108.768 28.5095 108.378 28.4462C107.989 28.3828 107.709 28.2924 107.537 28.1747C107.374 28.0571 107.292 27.8308 107.292 27.505C107.292 27.1792 107.41 26.9349 107.636 26.781C107.863 26.6272 108.152 26.5457 108.496 26.5457C108.768 26.5457 109.111 26.5819 109.519 26.6362L109.709 26.6724L109.691 27.0978C109.211 27.0254 108.813 26.9892 108.532 26.9892Z" fill="#143651"/>
<path fill-rule="evenodd" clip-rule="evenodd" d="M113.057 29.5141L112.867 29.5322C112.523 29.5593 112.179 29.5774 111.853 29.5774C111.528 29.5774 111.292 29.4869 111.157 29.3059C111.021 29.1249 110.957 28.8534 110.957 28.4824H113.166L113.193 28.1023C113.193 27.5684 113.084 27.1702 112.858 26.9168C112.632 26.6634 112.297 26.5367 111.844 26.5367C110.912 26.5367 110.442 27.1249 110.442 28.3014C110.442 28.8897 110.541 29.324 110.74 29.6046C110.939 29.8851 111.283 30.0209 111.763 30.0209C112.125 30.0209 112.559 29.9847 113.066 29.9123L113.057 29.5141ZM112.487 27.2154C112.623 27.3874 112.686 27.677 112.686 28.0842V28.0933H110.939C110.948 27.6951 111.021 27.4145 111.175 27.2335C111.329 27.0525 111.546 26.962 111.844 26.962C112.143 26.962 112.351 27.0435 112.487 27.2154Z" fill="#143651"/>
<path d="M116.704 26.5367C116.849 26.5367 117.102 26.5639 117.455 26.6182L117.618 26.6362L117.6 27.0435C117.247 27.0073 116.976 26.9801 116.813 26.9801C116.433 26.9801 116.179 27.0706 116.043 27.2516C115.908 27.4326 115.835 27.7675 115.835 28.2562C115.835 28.7449 115.899 29.0887 116.025 29.2788C116.152 29.4688 116.414 29.5684 116.822 29.5684L117.609 29.505L117.627 29.9213C117.211 29.9847 116.903 30.0118 116.695 30.0118C116.17 30.0118 115.808 29.8761 115.618 29.6136C115.419 29.3421 115.319 28.8987 115.319 28.2562C115.319 27.6136 115.428 27.1702 115.645 26.9168C115.844 26.6634 116.197 26.5367 116.704 26.5367Z" fill="#143651"/>
<path d="M120.957 26.6H120.451V29.3059L120.333 29.3693C120.261 29.4145 120.143 29.4507 119.989 29.496C119.835 29.5412 119.681 29.5593 119.537 29.5593C119.238 29.5593 119.039 29.4779 118.957 29.315C118.876 29.1521 118.831 28.8263 118.831 28.3376V26.6H118.333V28.3466C118.333 28.9801 118.405 29.4236 118.559 29.6589C118.704 29.8942 119.012 30.0118 119.464 30.0118C119.79 30.0118 120.125 29.9123 120.46 29.7132V29.9485H120.957V26.6Z" fill="#143651"/>
<path d="M122.976 26.9892C122.487 26.9892 122.243 27.1611 122.243 27.496C122.243 27.6498 122.297 27.7584 122.415 27.8308C122.523 27.8942 122.777 27.9666 123.175 28.0299C123.573 28.1023 123.854 28.1928 124.016 28.3195C124.179 28.4462 124.261 28.6815 124.261 29.0254C124.261 29.3693 124.152 29.6227 123.926 29.7856C123.7 29.9485 123.383 30.0299 122.958 30.0299C122.677 30.0299 122.351 29.9937 121.98 29.9394L121.781 29.9032L121.808 29.4688C122.315 29.5412 122.704 29.5865 122.958 29.5865C123.211 29.5865 123.41 29.5412 123.546 29.4598C123.682 29.3783 123.754 29.2426 123.754 29.0435C123.754 28.8444 123.7 28.7177 123.582 28.6453C123.464 28.5729 123.211 28.5095 122.822 28.4462C122.433 28.3828 122.152 28.2924 121.98 28.1747C121.817 28.0571 121.736 27.8308 121.736 27.505C121.736 27.1792 121.854 26.9349 122.08 26.781C122.306 26.6272 122.596 26.5457 122.939 26.5457C123.211 26.5457 123.555 26.5819 123.962 26.6362L124.152 26.6724L124.134 27.0978C123.654 27.0254 123.265 26.9892 122.976 26.9892Z" fill="#143651"/>
<path d="M125.709 27.0435H126.786V26.6181H125.718V25.5955H125.22V26.6181H124.74V27.0525H125.22V28.8172C125.22 29.2969 125.283 29.6136 125.419 29.7856C125.555 29.9575 125.799 30.039 126.143 30.039C126.297 30.039 126.523 30.0118 126.822 29.9666L126.786 29.5503L126.188 29.5865C125.98 29.5865 125.844 29.5322 125.79 29.4055C125.736 29.2788 125.709 29.0254 125.709 28.6453V27.0435Z" fill="#143651"/>
<path fill-rule="evenodd" clip-rule="evenodd" d="M127.247 28.2743C127.247 27.6589 127.356 27.2245 127.573 26.953C127.79 26.6815 128.161 26.5457 128.677 26.5457C129.202 26.5457 129.564 26.6815 129.781 26.953C129.998 27.2245 130.107 27.6679 130.107 28.2743C130.107 28.8806 130.007 29.3331 129.799 29.6046C129.591 29.8851 129.22 30.0209 128.677 30.0209C128.134 30.0209 127.754 29.8851 127.555 29.6046C127.347 29.324 127.247 28.8806 127.247 28.2743ZM127.763 28.2652C127.763 28.7539 127.826 29.0978 127.944 29.2969C128.062 29.496 128.306 29.5955 128.686 29.5955C129.066 29.5955 129.31 29.496 129.428 29.3059C129.546 29.1159 129.6 28.772 129.6 28.2743C129.6 27.7856 129.537 27.4417 129.41 27.2607C129.283 27.0797 129.039 26.9801 128.686 26.9801C128.333 26.9801 128.098 27.0706 127.962 27.2607C127.826 27.4326 127.763 27.7675 127.763 28.2652Z" fill="#143651"/>
<path d="M130.93 29.9485H131.446V27.2335L131.564 27.1702C131.643 27.1262 131.757 27.0907 131.896 27.0472L131.908 27.0435C132.053 26.9982 132.197 26.9801 132.342 26.9801C132.632 26.9801 132.822 27.0706 132.912 27.2426C132.994 27.4145 133.039 27.7403 133.039 28.22V29.9485H133.537V28.2109C133.537 27.7041 133.5 27.3783 133.446 27.2335L133.573 27.1702C133.651 27.127 133.77 27.0921 133.914 27.0497L133.935 27.0435C134.089 26.9982 134.243 26.9801 134.387 26.9801C134.677 26.9801 134.867 27.0706 134.957 27.2426C135.048 27.4055 135.093 27.7313 135.093 28.1928V29.9485H135.591V28.1838C135.591 27.5684 135.519 27.134 135.365 26.8987C135.202 26.6544 134.903 26.5367 134.46 26.5367C134.288 26.5367 134.08 26.5729 133.844 26.6453C133.609 26.7087 133.419 26.7901 133.274 26.8806C133.111 26.6543 132.822 26.5367 132.405 26.5367C132.089 26.5367 131.763 26.6362 131.428 26.8353V26.6001H130.93V29.9485Z" fill="#143651"/>
<path d="M136.523 25.8489V25.2697H137.021V25.8489H136.523Z" fill="#143651"/>
<path d="M136.523 29.9485V26.6001H137.021V29.9485H136.523Z" fill="#143651"/>
<path d="M137.79 26.6V27.0525H139.663L137.79 29.505V29.9575H140.279V29.505H138.406L140.279 27.0525V26.6H137.79Z" fill="#143651"/>
<path fill-rule="evenodd" clip-rule="evenodd" d="M143.401 27.6136V29.324C143.419 29.4869 143.546 29.5865 143.79 29.6227L143.772 30.0209C143.419 30.0209 143.157 29.9304 142.976 29.7494C142.577 29.9304 142.17 30.0209 141.772 30.0209C141.464 30.0209 141.229 29.9304 141.066 29.7584C140.903 29.5865 140.822 29.3331 140.822 29.0073C140.822 28.6815 140.903 28.4372 141.066 28.2833C141.229 28.1295 141.491 28.0299 141.844 28.0028L142.894 27.9032V27.6136C142.894 27.3874 142.849 27.2245 142.749 27.1249C142.65 27.0254 142.514 26.9801 142.351 26.9801C141.998 26.9801 141.627 26.9982 141.238 27.0435L141.03 27.0616L141.012 26.6815C141.5 26.5819 141.935 26.5367 142.315 26.5367C142.695 26.5367 142.967 26.6272 143.139 26.7991C143.32 26.9711 143.401 27.2426 143.401 27.6136ZM141.338 28.9801C141.338 29.3874 141.51 29.5955 141.844 29.5955C142.152 29.5955 142.451 29.5412 142.74 29.4417L142.894 29.3874V28.2833L141.908 28.3738C141.709 28.3919 141.564 28.4462 141.473 28.5457C141.383 28.6453 141.338 28.7901 141.338 28.9801Z" fill="#143651"/>
<path d="M145.057 27.0435H146.134V26.6181H145.066V25.5955H144.568V26.6181H144.089V27.0525H144.568V28.8172C144.568 29.2969 144.632 29.6136 144.767 29.7856C144.903 29.9575 145.148 30.039 145.491 30.039C145.645 30.039 145.872 30.0118 146.17 29.9666L146.134 29.5503L145.537 29.5865C145.329 29.5865 145.193 29.5322 145.138 29.4055C145.084 29.2788 145.057 29.0254 145.057 28.6453V27.0435Z" fill="#143651"/>
<path d="M146.74 25.8489V25.2697H147.238V25.8489H146.74Z" fill="#143651"/>
<path d="M146.74 29.9485V26.6001H147.238V29.9485H146.74Z" fill="#143651"/>
<path fill-rule="evenodd" clip-rule="evenodd" d="M148.387 26.953C148.17 27.2245 148.062 27.6589 148.062 28.2743C148.062 28.8806 148.161 29.324 148.369 29.6046C148.568 29.8851 148.948 30.0209 149.491 30.0209C150.034 30.0209 150.405 29.8851 150.614 29.6046C150.822 29.3331 150.921 28.8806 150.921 28.2743C150.921 27.6679 150.813 27.2245 150.595 26.953C150.378 26.6815 150.016 26.5457 149.491 26.5457C148.976 26.5457 148.605 26.6815 148.387 26.953ZM148.758 29.2969C148.641 29.0978 148.577 28.7539 148.577 28.2652C148.577 27.7675 148.641 27.4326 148.776 27.2607C148.912 27.0706 149.148 26.9801 149.5 26.9801C149.853 26.9801 150.098 27.0797 150.224 27.2607C150.351 27.4417 150.414 27.7856 150.414 28.2743C150.414 28.772 150.36 29.1159 150.243 29.3059C150.125 29.496 149.881 29.5955 149.5 29.5955C149.12 29.5955 148.876 29.496 148.758 29.2969Z" fill="#143651"/>
<path d="M151.754 29.9485V26.6001H152.252V26.8353C152.614 26.6362 152.958 26.5367 153.292 26.5367C153.736 26.5367 154.044 26.6544 154.197 26.8987C154.351 27.143 154.424 27.5684 154.424 28.1838V29.9485H153.926V28.1928C153.926 27.7313 153.881 27.4055 153.79 27.2426C153.7 27.0706 153.501 26.9801 153.202 26.9801C153.057 26.9801 152.912 26.9982 152.749 27.0435C152.587 27.0887 152.469 27.1249 152.387 27.1702L152.261 27.2335V29.9485H151.754Z" fill="#143651"/>
<path d="M155.31 29.1883V29.9485H155.863V29.1883H155.31Z" fill="#143651"/>
<defs>
<linearGradient id="paint0_linear_1153_2411" x1="1.42969" y1="7.99993" x2="14.5685" y2="7.99993" gradientUnits="userSpaceOnUse">
<stop stop-color="#284A65"/>
<stop offset="1" stop-color="#0871B8"/>
</linearGradient>
<linearGradient id="paint1_linear_1153_2411" x1="1.42969" y1="7.99993" x2="14.5685" y2="7.99993" gradientUnits="userSpaceOnUse">
<stop stop-color="#284A65"/>
<stop offset="1" stop-color="#0871B8"/>
</linearGradient>
<linearGradient id="paint2_linear_1153_2411" x1="17.4297" y1="24" x2="30.5685" y2="24" gradientUnits="userSpaceOnUse">
<stop stop-color="#284A65"/>
<stop offset="1" stop-color="#0871B8"/>
</linearGradient>
<linearGradient id="paint3_linear_1153_2411" x1="17.4297" y1="24" x2="30.5685" y2="24" gradientUnits="userSpaceOnUse">
<stop stop-color="#284A65"/>
<stop offset="1" stop-color="#0871B8"/>
</linearGradient>
<linearGradient id="paint4_linear_1153_2411" x1="3.60257" y1="4.09515" x2="25.0173" y2="24.9929" gradientUnits="userSpaceOnUse">
<stop stop-color="#284A65"/>
<stop offset="1" stop-color="#0871B8"/>
</linearGradient>
<linearGradient id="paint5_linear_1153_2411" x1="3.79289" y1="3.89525" x2="25.2108" y2="24.7961" gradientUnits="userSpaceOnUse">
<stop stop-color="#284A65"/>
<stop offset="1" stop-color="#0871B8"/>
</linearGradient>
<linearGradient id="paint6_linear_1153_2411" x1="32.1998" y1="1.17684" x2="0.542425" y2="30.1443" gradientUnits="userSpaceOnUse">
<stop stop-color="#284A65"/>
<stop offset="1" stop-color="#0871B8"/>
</linearGradient>
<linearGradient id="paint7_linear_1153_2411" x1="86.2214" y1="8.71997" x2="187.471" y2="-12.03" gradientUnits="userSpaceOnUse">
<stop stop-color="#284A65"/>
<stop offset="1" stop-color="#0871B8"/>
</linearGradient>
<linearGradient id="paint8_linear_1153_2411" x1="86.2214" y1="8.71997" x2="187.471" y2="-12.03" gradientUnits="userSpaceOnUse">
<stop stop-color="#284A65"/>
<stop offset="1" stop-color="#0871B8"/>
</linearGradient>
<linearGradient id="paint9_linear_1153_2411" x1="86.2214" y1="8.71997" x2="187.471" y2="-12.03" gradientUnits="userSpaceOnUse">
<stop stop-color="#284A65"/>
<stop offset="1" stop-color="#0871B8"/>
</linearGradient>
<linearGradient id="paint10_linear_1153_2411" x1="86.2214" y1="8.71997" x2="187.471" y2="-12.03" gradientUnits="userSpaceOnUse">
<stop stop-color="#284A65"/>
<stop offset="1" stop-color="#0871B8"/>
</linearGradient>
<linearGradient id="paint11_linear_1153_2411" x1="86.2214" y1="8.71997" x2="187.471" y2="-12.03" gradientUnits="userSpaceOnUse">
<stop stop-color="#284A65"/>
<stop offset="1" stop-color="#0871B8"/>
</linearGradient>
<linearGradient id="paint12_linear_1153_2411" x1="86.2214" y1="8.71997" x2="187.471" y2="-12.03" gradientUnits="userSpaceOnUse">
<stop stop-color="#284A65"/>
<stop offset="1" stop-color="#0871B8"/>
</linearGradient>
<linearGradient id="paint13_linear_1153_2411" x1="86.2214" y1="8.71997" x2="187.471" y2="-12.03" gradientUnits="userSpaceOnUse">
<stop stop-color="#284A65"/>
<stop offset="1" stop-color="#0871B8"/>
</linearGradient>
<linearGradient id="paint14_linear_1153_2411" x1="86.2214" y1="8.71997" x2="187.471" y2="-12.03" gradientUnits="userSpaceOnUse">
<stop stop-color="#284A65"/>
<stop offset="1" stop-color="#0871B8"/>
</linearGradient>
</defs>
</svg>
