<svg xmlns="http://www.w3.org/2000/svg" width="159" height="32" viewBox="0 0 159 32" fill="none"><path d="M7.99983 14.5701C11.6284 14.5701 14.57 11.6285 14.57 7.99995C14.57 4.37136 11.6284 1.42981 7.99983 1.42981C4.37124 1.42981 1.42969 4.37136 1.42969 7.99995C1.42969 11.6285 4.37124 14.5701 7.99983 14.5701Z" fill="#143652"/><path d="M7.99983 14.5701C11.6284 14.5701 14.57 11.6285 14.57 7.99995C14.57 4.37136 11.6284 1.42981 7.99983 1.42981C4.37124 1.42981 1.42969 4.37136 1.42969 7.99995C1.42969 11.6285 4.37124 14.5701 7.99983 14.5701Z" fill="#143652"/><path d="M23.9998 30.5702C27.6284 30.5702 30.57 27.6287 30.57 24.0001C30.57 20.3715 27.6284 17.4299 23.9998 17.4299C20.3712 17.4299 17.4297 20.3715 17.4297 24.0001C17.4297 27.6287 20.3712 30.5702 23.9998 30.5702Z" fill="#143652"/><path d="M23.9998 30.5702C27.6284 30.5702 30.57 27.6287 30.57 24.0001C30.57 20.3715 27.6284 17.4299 23.9998 17.4299C20.3712 17.4299 17.4297 20.3715 17.4297 24.0001C17.4297 27.6287 20.3712 30.5702 23.9998 30.5702Z" fill="#143652"/><path d="M23.9998 30.5702C27.6284 30.5702 30.57 27.6287 30.57 24.0001C30.57 20.3715 27.6284 17.4299 23.9998 17.4299C20.3712 17.4299 17.4297 20.3715 17.4297 24.0001C17.4297 27.6287 20.3712 30.5702 23.9998 30.5702Z" fill="#143652"/><path d="M7.99983 1.42981C4.37992 1.42981 1.42969 4.38004 1.42969 7.99995C1.42969 11.6199 4.37992 14.5701 7.99983 14.5701C11.6197 14.5701 14.57 11.6199 14.57 7.99995C14.5609 4.38004 11.6197 1.42981 7.99983 1.42981Z" fill="#143652"/><path d="M16 0V8.00001C16 12.4163 12.4163 16 8 16H0V32H16V24C16 19.5837 19.5837 16 24 16H32V0H16ZM8 30.5701C4.38009 30.5701 1.42986 27.6199 1.42986 24C1.42986 20.3801 4.38009 17.4299 8 17.4299C11.6199 17.4299 14.5701 20.3801 14.5701 24C14.5701 27.6199 11.6199 30.5701 8 30.5701ZM24 14.5701C20.3801 14.5701 17.4299 11.6199 17.4299 8.00001C17.4299 4.38009 20.3801 1.42987 24 1.42987C27.6199 1.42987 30.5701 4.38009 30.5701 8.00001C30.5701 11.6199 27.6199 14.5701 24 14.5701Z" fill="#143652"/><path d="M51.529 21.5839H40.0811V1.17664H43.3842V18.6337H51.52V21.5839H51.529Z" fill="#143652"/><path d="M64.8774 11.2761V18.0725C64.8955 18.5069 65.0132 18.8327 65.2213 19.0408C65.4294 19.249 65.7552 19.3847 66.1896 19.439L66.0991 21.9096C64.3887 21.9096 63.0675 21.5386 62.1353 20.8055C60.5426 21.5386 58.9498 21.9096 57.3389 21.9096C54.3797 21.9096 52.8955 20.3259 52.8955 17.1675C52.8955 15.6562 53.2937 14.5612 54.0991 13.8915C54.9046 13.2128 56.1444 12.8055 57.8095 12.6698L61.6557 12.344V11.2671C61.6557 10.4707 61.4837 9.91865 61.1308 9.60191C60.7869 9.28517 60.2711 9.12227 59.5923 9.12227C58.3163 9.12227 56.7326 9.20372 54.8231 9.35757L53.8729 9.42092L53.7552 7.12228C55.9181 6.60644 57.9091 6.34399 59.7281 6.34399C61.5471 6.34399 62.8593 6.73313 63.6647 7.52046C64.4702 8.32589 64.8774 9.56571 64.8774 11.2761ZM58.1987 14.9684C56.8322 15.0861 56.1444 15.8372 56.1444 17.2037C56.1444 18.5702 56.7507 19.258 57.9634 19.258C58.9589 19.258 60.0086 19.1042 61.1217 18.7784L61.6557 18.5974V14.6426L58.1987 14.9684Z" fill="#143652"/><path d="M75.9004 6.36209C77.9457 6.36209 79.4208 6.93223 80.3258 8.0725C81.2307 9.21277 81.6832 11.2399 81.6832 14.1359C81.6832 17.0408 81.1493 19.0589 80.0724 20.1992C78.9954 21.3395 77.1131 21.9096 74.4072 21.9096C73.4751 21.9096 71.9909 21.8191 69.9638 21.6381L68.9502 21.5476V0.479736H72.1719V7.23992C73.5475 6.66073 74.7873 6.36209 75.9004 6.36209ZM74.4072 19.0227C76 19.0227 77.0497 18.6517 77.5837 17.9096C78.1086 17.1675 78.371 15.9006 78.371 14.1087C78.371 12.3259 78.1448 11.068 77.7013 10.3349C77.2579 9.61096 76.5249 9.24897 75.5113 9.24897C74.5611 9.24897 73.6018 9.39377 72.6516 9.69241L72.1719 9.83721V18.896C73.2669 18.9865 74.009 19.0227 74.4072 19.0227Z" fill="#143652"/><path d="M91.1214 3.73763C88.5965 3.73763 87.3386 4.62451 87.3386 6.38921C87.3386 7.30324 87.6372 7.95483 88.2345 8.34397C88.8318 8.73311 90.144 9.2037 92.1802 9.77384C94.2164 10.3349 95.6553 11.0137 96.4879 11.801C97.3205 12.5883 97.7368 13.8191 97.7368 15.5114C97.7368 17.6562 97.1304 19.258 95.9087 20.3259C94.687 21.3847 93.0218 21.9186 90.9223 21.9186C89.23 21.9186 87.3657 21.7195 85.3205 21.3214L84.2436 21.1132L84.5693 18.4616C87.2481 18.8146 89.2933 18.9956 90.7051 18.9956C93.1666 18.9956 94.3974 17.9005 94.3974 15.7195C94.3974 14.8689 94.1169 14.2354 93.5648 13.8281C93.0128 13.4209 91.7549 12.9775 89.8092 12.4888C87.8635 12.0001 86.4155 11.3304 85.4562 10.4797C84.506 9.62904 84.0264 8.27157 84.0264 6.42541C84.0264 4.57926 84.6236 3.1856 85.8273 2.23537C87.0309 1.29419 88.6961 0.823608 90.8137 0.823608C92.3431 0.823608 94.1531 1.0046 96.2345 1.35754L97.2752 1.53853L97.0037 4.21727C94.2436 3.90053 92.2798 3.73763 91.1214 3.73763Z" fill="#143652"/><path d="M111.538 18.9051L112.371 18.8146L112.434 21.2308C110.172 21.6833 108.162 21.9186 106.416 21.9186C104.208 21.9186 102.624 21.3123 101.665 20.0996C100.705 18.8869 100.217 16.9503 100.217 14.2897C100.217 9.0046 102.371 6.36206 106.678 6.36206C110.85 6.36206 112.941 8.63355 112.941 13.1856L112.733 15.5114H103.493C103.511 16.7422 103.782 17.6471 104.298 18.2263C104.814 18.8055 105.773 19.0951 107.185 19.0951C108.597 19.0951 110.045 19.0227 111.538 18.9051ZM109.746 13.0046C109.746 11.5385 109.511 10.5069 109.049 9.91862C108.579 9.33039 107.791 9.04079 106.678 9.04079C105.565 9.04079 104.76 9.34849 104.253 9.96387C103.746 10.5793 103.484 11.5928 103.466 13.0046H109.746Z" fill="#143652"/><path d="M119.311 21.5838H116.062V6.68785H119.284V7.61093C120.732 6.77835 122.108 6.36206 123.393 6.36206C125.384 6.36206 126.732 6.92315 127.456 8.04532C128.18 9.16749 128.542 11.0227 128.542 13.6019V21.5838H125.32V13.6833C125.32 12.0725 125.148 10.9322 124.796 10.2535C124.452 9.57473 123.737 9.23989 122.669 9.23989C121.655 9.23989 120.678 9.43899 119.746 9.83718L119.302 10.0182V21.5838H119.311Z" fill="#143652"/><path d="M142.67 9.75571C140.326 9.43897 138.624 9.27607 137.574 9.27607C136.525 9.27607 135.792 9.40277 135.384 9.64712C134.977 9.89146 134.778 10.2896 134.778 10.8236C134.778 11.3575 135.004 11.7376 135.448 11.9548C135.891 12.172 136.95 12.4254 138.606 12.715C140.262 13.0046 141.439 13.4571 142.136 14.0725C142.832 14.6878 143.176 15.7829 143.176 17.3485C143.176 18.9141 142.679 20.0725 141.674 20.8055C140.67 21.5385 139.203 21.9096 137.276 21.9096C136.063 21.9096 134.534 21.7376 132.688 21.4028L131.765 21.2489L131.882 18.534C134.262 18.8507 135.982 19.0136 137.041 19.0136C138.099 19.0136 138.841 18.8869 139.294 18.6245C139.737 18.362 139.964 17.9367 139.964 17.3394C139.964 16.7421 139.746 16.3349 139.321 16.0996C138.896 15.8734 137.873 15.62 136.253 15.3575C134.633 15.086 133.448 14.6697 132.697 14.0906C131.946 13.5114 131.565 12.4616 131.565 10.9322C131.565 9.40277 132.09 8.2625 133.131 7.50232C134.172 6.75118 135.511 6.37109 137.14 6.37109C138.416 6.37109 139.973 6.53399 141.819 6.85073L142.742 7.03172L142.67 9.75571Z" fill="#143652"/><path d="M156.914 18.9051L157.747 18.8146L157.81 21.2308C155.548 21.6833 153.538 21.9186 151.792 21.9186C149.584 21.9186 148 21.3123 147.041 20.0996C146.081 18.8869 145.593 16.9503 145.593 14.2897C145.593 9.0046 147.747 6.36206 152.054 6.36206C156.226 6.36206 158.317 8.63355 158.317 13.1856L158.109 15.5114H148.869C148.887 16.7422 149.158 17.6471 149.674 18.2263C150.19 18.8055 151.149 19.0951 152.561 19.0951C153.973 19.0951 155.43 19.0227 156.914 18.9051ZM155.131 13.0046C155.131 11.5385 154.896 10.5069 154.434 9.91862C153.964 9.33039 153.176 9.04079 152.063 9.04079C150.95 9.04079 150.145 9.34849 149.638 9.96387C149.131 10.5793 148.869 11.5928 148.851 13.0046H155.131Z" fill="#143652"/><path d="M40.1084 29.7285V25.095H41.0405L42.3527 29.0135L43.665 25.095H44.5971V29.7285H44.0813V25.647H43.9908L42.6423 29.5656H42.0632L40.7147 25.647H40.6242V29.7285H40.1084Z" fill="#143652"/><path d="M48.0089 27.3936V29.104C48.0179 29.2669 48.1537 29.3664 48.398 29.4026L48.3799 29.8008C48.027 29.8008 47.7645 29.7103 47.5835 29.5293C47.1853 29.7103 46.7781 29.8008 46.3799 29.8008C46.0722 29.8008 45.8369 29.7103 45.674 29.5384C45.5111 29.3664 45.4297 29.113 45.4297 28.7872C45.4297 28.4615 45.5111 28.2171 45.674 28.0633C45.8369 27.9094 46.0994 27.8099 46.4523 27.7827L47.5021 27.6832V27.3936C47.5021 27.1673 47.4568 27.0044 47.3573 26.9049C47.2577 26.8053 47.122 26.7601 46.9591 26.7601C46.5971 26.7601 46.2351 26.7782 45.846 26.8234L45.6378 26.8415L45.6197 26.4615C46.1084 26.3619 46.5428 26.3167 46.9229 26.3167C47.303 26.3167 47.5745 26.4072 47.7464 26.5791C47.9184 26.751 48.0089 27.0225 48.0089 27.3936ZM45.9455 28.7601C45.9455 29.1673 46.1175 29.3755 46.4523 29.3755C46.76 29.3755 47.0586 29.3212 47.3482 29.2216L47.5021 29.1673V28.0633L46.5066 28.1538C46.3075 28.1719 46.1627 28.2262 46.0722 28.3257C45.9817 28.4252 45.9455 28.5701 45.9455 28.7601Z" fill="#143652"/><path d="M49.5016 29.7285H49.0039V24.9231H49.5107V27.7647L50.0356 27.7376L50.9949 26.3801H51.565L50.47 27.9186L51.6102 29.7285H51.0401L50.0446 28.172L49.5197 28.1901V29.7285H49.5016Z" fill="#143652"/><path d="M54.3977 29.3121L54.5878 29.294L54.6059 29.6922C54.0991 29.7646 53.6647 29.8008 53.3027 29.8008C52.8231 29.8008 52.4792 29.6651 52.2801 29.3845C52.081 29.104 51.9814 28.6696 51.9814 28.0814C51.9814 26.9049 52.452 26.3167 53.3842 26.3167C53.8367 26.3167 54.1715 26.4434 54.3977 26.6968C54.624 26.9501 54.7326 27.3483 54.7326 27.8823L54.7054 28.2624H52.4973C52.4973 28.6334 52.5606 28.9049 52.6964 29.0859C52.8321 29.2669 53.0674 29.3574 53.3932 29.3574C53.719 29.3574 54.0538 29.3393 54.3977 29.3121ZM54.2167 27.8642C54.2167 27.4569 54.1534 27.1673 54.0176 26.9954C53.8819 26.8234 53.6738 26.742 53.3751 26.742C53.0765 26.742 52.8593 26.8325 52.7054 27.0135C52.5516 27.1945 52.4792 27.475 52.4701 27.8732H54.2167V27.8642Z" fill="#143652"/><path d="M59.3389 27.3936V29.104C59.348 29.2669 59.4837 29.3664 59.7281 29.4026L59.71 29.8008C59.3571 29.8008 59.0946 29.7103 58.9136 29.5293C58.5154 29.7103 58.1082 29.8008 57.71 29.8008C57.4023 29.8008 57.167 29.7103 57.0041 29.5384C56.8412 29.3664 56.7598 29.113 56.7598 28.7872C56.7598 28.4615 56.8412 28.2171 57.0041 28.0633C57.167 27.9094 57.4295 27.8099 57.7824 27.7827L58.8322 27.6832V27.3936C58.8322 27.1673 58.7869 27.0044 58.6874 26.9049C58.5878 26.8053 58.4521 26.7601 58.2892 26.7601C57.9272 26.7601 57.5652 26.7782 57.1761 26.8234L56.9679 26.8415L56.9498 26.4615C57.4385 26.3619 57.8729 26.3167 58.253 26.3167C58.6331 26.3167 58.9046 26.4072 59.0765 26.5791C59.2485 26.751 59.3389 27.0225 59.3389 27.3936ZM57.2756 28.7601C57.2756 29.1673 57.4476 29.3755 57.7824 29.3755C58.0901 29.3755 58.3887 29.3212 58.6783 29.2216L58.8322 29.1673V28.0633L57.8367 28.1538C57.6376 28.1719 57.4928 28.2262 57.4023 28.3257C57.3118 28.4252 57.2756 28.5701 57.2756 28.7601Z" fill="#143652"/><path d="M64.38 24.9231V29.7285H63.8822V29.5023C63.5383 29.7014 63.2035 29.8009 62.8687 29.8009C62.6877 29.8009 62.5338 29.7738 62.3981 29.7376C62.2623 29.7014 62.1356 29.6109 62.027 29.4932C61.7827 29.2489 61.665 28.8054 61.665 28.1539C61.665 27.5023 61.7736 27.0317 61.9908 26.7512C62.208 26.4706 62.57 26.3168 63.0678 26.3168C63.3302 26.3168 63.6017 26.3439 63.8913 26.4073V24.9231H64.38ZM62.6334 29.3032C62.7148 29.3303 62.8144 29.3484 62.9411 29.3484C63.0678 29.3484 63.2126 29.3303 63.3664 29.2851C63.5202 29.2398 63.6469 29.2036 63.7374 29.1584L63.8732 29.095V26.8236C63.5836 26.7693 63.3212 26.7421 63.0768 26.7421C62.7329 26.7421 62.4976 26.8507 62.3709 27.0679C62.2352 27.2851 62.1718 27.6199 62.1718 28.0724C62.1718 28.5883 62.2533 28.9412 62.4071 29.1131C62.4795 29.2127 62.561 29.276 62.6334 29.3032Z" fill="#143652"/><path d="M65.3486 25.6289V25.0497H65.8554V25.6289H65.3486ZM65.3486 29.7284V26.38H65.8554V29.7284H65.3486Z" fill="#143652"/><path d="M67.4565 26.8235V29.7375H66.9498V26.8235H66.5244V26.3891H66.9498V26.0905C66.9498 25.6199 67.0131 25.2941 67.1489 25.1222C67.2846 24.9502 67.5199 24.8688 67.8547 24.8688L68.5335 24.914L68.5244 25.3303C68.271 25.3213 68.0719 25.3213 67.909 25.3213C67.7461 25.3213 67.6285 25.3756 67.5651 25.4842C67.5018 25.5927 67.4656 25.8009 67.4656 26.1086V26.4072H68.4339V26.8416H67.4565V26.8235Z" fill="#143652"/><path d="M69.6743 26.8235V29.7375H69.1675V26.8235H68.7422V26.3891H69.1675V26.0905C69.1675 25.6199 69.2309 25.2941 69.3666 25.1222C69.5024 24.9502 69.7377 24.8688 70.0725 24.8688L70.7512 24.914L70.7422 25.3303C70.4888 25.3213 70.2897 25.3213 70.1268 25.3213C69.9639 25.3213 69.8463 25.3756 69.7829 25.4842C69.7196 25.5927 69.6834 25.8009 69.6834 26.1086V26.4072H70.6517V26.8416H69.6743V26.8235Z" fill="#143652"/><path d="M73.4661 29.3121L73.6561 29.294L73.6742 29.6922C73.1675 29.7646 72.7331 29.8008 72.3711 29.8008C71.8914 29.8008 71.5475 29.6651 71.3484 29.3845C71.1494 29.104 71.0498 28.6696 71.0498 28.0814C71.0498 26.9049 71.5204 26.3167 72.4525 26.3167C72.905 26.3167 73.2398 26.4434 73.4661 26.6968C73.6923 26.9501 73.8009 27.3483 73.8009 27.8823L73.7738 28.2624H71.5656C71.5656 28.6334 71.629 28.9049 71.7647 29.0859C71.9005 29.2669 72.1358 29.3574 72.4616 29.3574C72.7874 29.3574 73.1222 29.3393 73.4661 29.3121ZM73.2851 27.8642C73.2851 27.4569 73.2218 27.1673 73.086 26.9954C72.9503 26.8234 72.7421 26.742 72.4435 26.742C72.1448 26.742 71.9276 26.8325 71.7738 27.0135C71.6199 27.1945 71.5475 27.475 71.5385 27.8732H73.2851V27.8642Z" fill="#143652"/><path d="M74.5703 29.7284V26.38H75.0681V26.8325C75.4572 26.561 75.8644 26.3891 76.2898 26.3076V26.8144C76.0997 26.8506 75.9097 26.9049 75.7015 26.9773C75.4934 27.0497 75.3395 27.1221 75.24 27.1764L75.0681 27.2669V29.7284H74.5703Z" fill="#143652"/><path d="M79.095 29.3121L79.285 29.294L79.3031 29.6922C78.7964 29.7646 78.362 29.8008 78 29.8008C77.5203 29.8008 77.1765 29.6651 76.9774 29.3845C76.7783 29.104 76.6787 28.6696 76.6787 28.0814C76.6787 26.9049 77.1493 26.3167 78.0814 26.3167C78.5339 26.3167 78.8688 26.4434 79.095 26.6968C79.3212 26.9501 79.4298 27.3483 79.4298 27.8823L79.4027 28.2624H77.1945C77.1945 28.6334 77.2579 28.9049 77.3936 29.0859C77.5294 29.2669 77.7647 29.3574 78.0905 29.3574C78.4163 29.3574 78.7511 29.3393 79.095 29.3121ZM78.914 27.8642C78.914 27.4569 78.8507 27.1673 78.7149 26.9954C78.5792 26.8234 78.371 26.742 78.0724 26.742C77.7737 26.742 77.5565 26.8325 77.4027 27.0135C77.2488 27.1945 77.1764 27.475 77.1674 27.8732H78.914V27.8642Z" fill="#143652"/><path d="M80.706 29.7284H80.1992V26.38H80.6969V26.6153C81.0589 26.4162 81.4028 26.3167 81.7377 26.3167C82.1811 26.3167 82.4888 26.4343 82.6427 26.6786C82.7965 26.923 82.8689 27.3483 82.8689 27.9637V29.7284H82.3712V27.9728C82.3712 27.5112 82.3259 27.1854 82.2354 27.0225C82.1449 26.8506 81.9458 26.7601 81.6472 26.7601C81.5024 26.7601 81.3576 26.7782 81.1947 26.8234C81.0318 26.8687 80.9141 26.9049 80.8327 26.9501L80.706 27.0135V29.7284Z" fill="#143652"/><path d="M85.0499 26.3167C85.1947 26.3167 85.4481 26.3438 85.801 26.3981L85.9639 26.4162L85.9458 26.8234C85.5929 26.7873 85.3214 26.7601 85.1585 26.7601C84.7784 26.7601 84.525 26.8506 84.3893 27.0316C84.2535 27.2126 84.1811 27.5474 84.1811 28.0361C84.1811 28.5248 84.2445 28.8687 84.3712 29.0587C84.4979 29.2488 84.7603 29.3483 85.1676 29.3483L85.9549 29.285L85.973 29.7013C85.5567 29.7646 85.249 29.7918 85.0409 29.7918C84.516 29.7918 84.154 29.656 83.9549 29.3936C83.7558 29.1221 83.6562 28.6786 83.6562 28.0361C83.6562 27.3936 83.7648 26.9501 83.982 26.6968C84.1902 26.4434 84.5522 26.3167 85.0499 26.3167Z" fill="#143652"/><path d="M88.9595 29.3121L89.1496 29.294L89.1586 29.6922C88.6518 29.7646 88.2174 29.8008 87.8554 29.8008C87.3758 29.8008 87.0319 29.6651 86.8328 29.3845C86.6337 29.104 86.5342 28.6696 86.5342 28.0814C86.5342 26.9049 87.0048 26.3167 87.9369 26.3167C88.3894 26.3167 88.7242 26.4434 88.9505 26.6968C89.1767 26.9501 89.2853 27.3483 89.2853 27.8823L89.2582 28.2624H87.05C87.05 28.6334 87.1134 28.9049 87.2491 29.0859C87.3849 29.2669 87.6202 29.3574 87.9459 29.3574C88.2717 29.3574 88.6156 29.3393 88.9595 29.3121ZM88.7785 27.8642C88.7785 27.4569 88.7152 27.1673 88.5794 26.9954C88.4437 26.8234 88.2355 26.742 87.9369 26.742C87.6382 26.742 87.412 26.8325 87.2672 27.0135C87.1224 27.1945 87.041 27.475 87.0319 27.8732H88.7785V27.8642Z" fill="#143652"/><path d="M90.0273 29.7284V28.9683H90.5794V29.7284H90.0273Z" fill="#143652"/><path d="M95.8641 29.6562C95.4026 29.7467 94.9953 29.801 94.6243 29.801C94.2532 29.801 93.9636 29.7467 93.7374 29.6471C93.5112 29.5476 93.3392 29.3937 93.2125 29.1765C93.0858 28.9594 93.0044 28.7241 92.9591 28.4435C92.9139 28.163 92.8867 27.8281 92.8867 27.4118C92.8867 26.9956 92.9139 26.6607 92.9591 26.3802C93.0044 26.0996 93.0949 25.8553 93.2125 25.6381C93.3392 25.4209 93.5112 25.2671 93.7284 25.1675C93.9455 25.068 94.2442 25.0227 94.5971 25.0227C94.9501 25.0227 95.3754 25.068 95.855 25.1675L95.837 25.6019C95.3845 25.5204 94.9863 25.4842 94.6333 25.4842C94.1446 25.4842 93.8189 25.629 93.656 25.9277C93.4931 26.2173 93.4207 26.715 93.4207 27.4209C93.4207 27.7738 93.4388 28.0544 93.4659 28.2716C93.4931 28.4888 93.5474 28.6788 93.6379 28.8508C93.7193 29.0227 93.846 29.1494 94.0089 29.2218C94.1718 29.2942 94.4071 29.3304 94.7238 29.3304C95.0406 29.3304 95.4116 29.2942 95.837 29.2128L95.8641 29.6562Z" fill="#143652"/><path d="M97.1218 29.7285H96.624V24.9231H97.1218V26.5701C97.4747 26.3982 97.8186 26.3168 98.1534 26.3168C98.5969 26.3168 98.9046 26.4344 99.0584 26.6788C99.2123 26.9231 99.2937 27.3484 99.2937 27.9638V29.7285H98.7869V27.9729C98.7869 27.5113 98.7417 27.1855 98.6512 27.0226C98.5607 26.8507 98.3706 26.7602 98.072 26.7602C97.7915 26.7602 97.5199 26.8145 97.2575 26.914L97.1308 26.9593V29.7285H97.1218Z" fill="#143652"/><path d="M100.072 28.0543C100.072 27.4389 100.181 27.0045 100.398 26.733C100.615 26.4615 100.986 26.3258 101.511 26.3258C102.027 26.3258 102.398 26.4615 102.615 26.733C102.832 27.0045 102.941 27.448 102.941 28.0543C102.941 28.6607 102.841 29.1131 102.633 29.3846C102.425 29.6652 102.054 29.8009 101.511 29.8009C100.968 29.8009 100.588 29.6652 100.389 29.3846C100.172 29.1041 100.072 28.6607 100.072 28.0543ZM100.588 28.0453C100.588 28.5339 100.651 28.8778 100.769 29.0769C100.887 29.276 101.14 29.3756 101.511 29.3756C101.891 29.3756 102.136 29.276 102.253 29.086C102.371 28.8959 102.425 28.5521 102.425 28.0543C102.425 27.5656 102.362 27.2217 102.235 27.0407C102.108 26.8597 101.864 26.7602 101.52 26.7602C101.167 26.7602 100.932 26.8507 100.796 27.0407C100.651 27.2127 100.588 27.5475 100.588 28.0453Z" fill="#143652"/><path d="M103.61 28.0542C103.61 27.4388 103.719 27.0044 103.936 26.7329C104.153 26.4614 104.524 26.3257 105.04 26.3257C105.565 26.3257 105.927 26.4614 106.144 26.7329C106.361 27.0044 106.47 27.4479 106.47 28.0542C106.47 28.6605 106.371 29.113 106.162 29.3845C105.954 29.665 105.583 29.8008 105.04 29.8008C104.497 29.8008 104.117 29.665 103.918 29.3845C103.71 29.104 103.61 28.6605 103.61 28.0542ZM104.126 28.0451C104.126 28.5338 104.19 28.8777 104.307 29.0768C104.425 29.2759 104.669 29.3755 105.049 29.3755C105.429 29.3755 105.674 29.2759 105.791 29.0859C105.909 28.8958 105.963 28.5519 105.963 28.0542C105.963 27.5655 105.9 27.2216 105.773 27.0406C105.647 26.8596 105.402 26.7601 105.049 26.7601C104.696 26.7601 104.461 26.8506 104.325 27.0406C104.19 27.2126 104.126 27.5474 104.126 28.0451Z" fill="#143652"/><path d="M108.343 26.7691C107.855 26.7691 107.61 26.9411 107.61 27.2759C107.61 27.4298 107.665 27.5384 107.782 27.6107C107.891 27.6741 108.144 27.7465 108.542 27.8098C108.941 27.8822 109.221 27.9727 109.384 28.0994C109.547 28.2261 109.628 28.4614 109.628 28.8053C109.628 29.1492 109.52 29.4026 109.294 29.5655C109.067 29.7284 108.751 29.8098 108.325 29.8098C108.045 29.8098 107.719 29.7736 107.348 29.7193L107.149 29.6831L107.176 29.2488C107.683 29.3212 108.072 29.3664 108.325 29.3664C108.579 29.3664 108.778 29.3212 108.913 29.2397C109.049 29.1583 109.122 29.0225 109.122 28.8234C109.122 28.6243 109.067 28.4976 108.95 28.4252C108.832 28.3528 108.579 28.2895 108.189 28.2261C107.8 28.1628 107.52 28.0723 107.348 27.9546C107.185 27.837 107.104 27.6107 107.104 27.285C107.104 26.9592 107.221 26.7148 107.447 26.561C107.674 26.4071 107.963 26.3257 108.307 26.3257C108.579 26.3257 108.923 26.3619 109.33 26.4162L109.52 26.4524L109.502 26.8777C109.022 26.8053 108.624 26.7691 108.343 26.7691Z" fill="#143652"/><path d="M112.678 29.3121L112.868 29.294L112.877 29.6922C112.371 29.7646 111.936 29.8008 111.574 29.8008C111.095 29.8008 110.751 29.6651 110.552 29.3845C110.352 29.104 110.253 28.6696 110.253 28.0814C110.253 26.9049 110.724 26.3167 111.656 26.3167C112.108 26.3167 112.443 26.4434 112.669 26.6968C112.895 26.9501 113.004 27.3483 113.004 27.8823L112.977 28.2624H110.769C110.769 28.6334 110.832 28.9049 110.968 29.0859C111.104 29.2669 111.339 29.3574 111.665 29.3574C111.99 29.3574 112.334 29.3393 112.678 29.3121ZM112.497 27.8642C112.497 27.4569 112.434 27.1673 112.298 26.9954C112.162 26.8234 111.954 26.742 111.656 26.742C111.357 26.742 111.14 26.8325 110.986 27.0135C110.832 27.1945 110.76 27.475 110.751 27.8732H112.497V27.8642Z" fill="#143652"/><path d="M116.515 26.3167C116.66 26.3167 116.914 26.3438 117.267 26.3981L117.43 26.4162L117.411 26.8234C117.058 26.7873 116.787 26.7601 116.624 26.7601C116.244 26.7601 115.991 26.8506 115.855 27.0316C115.719 27.2126 115.647 27.5474 115.647 28.0361C115.647 28.5248 115.71 28.8687 115.837 29.0587C115.963 29.2488 116.226 29.3483 116.633 29.3483L117.42 29.285L117.439 29.7013C117.022 29.7646 116.715 29.7918 116.506 29.7918C115.982 29.7918 115.62 29.656 115.43 29.3936C115.23 29.1221 115.131 28.6786 115.131 28.0361C115.131 27.3936 115.239 26.9501 115.457 26.6968C115.656 26.4434 116.009 26.3167 116.515 26.3167Z" fill="#143652"/><path d="M120.271 26.3801H120.769V29.7285H120.271V29.4933C119.936 29.6923 119.602 29.7919 119.276 29.7919C118.823 29.7919 118.516 29.6742 118.371 29.439C118.217 29.2037 118.145 28.7602 118.145 28.1267V26.3801H118.642V28.1177C118.642 28.6064 118.688 28.9322 118.769 29.0951C118.85 29.258 119.05 29.3394 119.348 29.3394C119.493 29.3394 119.647 29.3213 119.801 29.2761C119.954 29.2308 120.072 29.1946 120.145 29.1494L120.262 29.086V26.3801H120.271Z" fill="#143652"/><path d="M122.787 26.7691C122.298 26.7691 122.054 26.9411 122.054 27.2759C122.054 27.4298 122.108 27.5384 122.226 27.6107C122.334 27.6741 122.588 27.7465 122.986 27.8098C123.384 27.8822 123.665 27.9727 123.827 28.0994C123.99 28.2261 124.072 28.4614 124.072 28.8053C124.072 29.1492 123.963 29.4026 123.737 29.5655C123.511 29.7284 123.194 29.8098 122.769 29.8098C122.488 29.8098 122.162 29.7736 121.791 29.7193L121.592 29.6831L121.619 29.2488C122.126 29.3212 122.515 29.3664 122.769 29.3664C123.022 29.3664 123.221 29.3212 123.357 29.2397C123.493 29.1583 123.565 29.0225 123.565 28.8234C123.565 28.6243 123.511 28.4976 123.393 28.4252C123.275 28.3528 123.022 28.2895 122.633 28.2261C122.244 28.1628 121.963 28.0723 121.791 27.9546C121.628 27.837 121.547 27.6107 121.547 27.285C121.547 26.9592 121.665 26.7148 121.891 26.561C122.117 26.4071 122.407 26.3257 122.75 26.3257C123.022 26.3257 123.366 26.3619 123.773 26.4162L123.963 26.4524L123.945 26.8777C123.465 26.8053 123.076 26.7691 122.787 26.7691Z" fill="#143652"/><path d="M126.588 26.8236H125.52V28.4254C125.52 28.8055 125.547 29.0589 125.602 29.1856C125.656 29.3123 125.792 29.3666 126 29.3666L126.597 29.3304L126.633 29.7467C126.335 29.7919 126.108 29.8191 125.954 29.8191C125.611 29.8191 125.366 29.7376 125.23 29.5657C125.095 29.3937 125.031 29.077 125.031 28.5973V26.8326H124.552V26.3982H125.031V25.3756H125.529V26.3982H126.597V26.8236H126.588Z" fill="#143652"/><path d="M127.059 28.0543C127.059 27.4389 127.167 27.0045 127.384 26.733C127.602 26.4615 127.973 26.3258 128.488 26.3258C129.013 26.3258 129.375 26.4615 129.593 26.733C129.81 27.0045 129.918 27.448 129.918 28.0543C129.918 28.6607 129.819 29.1131 129.611 29.3846C129.402 29.6652 129.031 29.8009 128.488 29.8009C127.945 29.8009 127.565 29.6652 127.366 29.3846C127.158 29.1041 127.059 28.6607 127.059 28.0543ZM127.574 28.0453C127.574 28.5339 127.638 28.8778 127.755 29.0769C127.873 29.276 128.117 29.3756 128.498 29.3756C128.878 29.3756 129.122 29.276 129.24 29.086C129.357 28.8959 129.412 28.5521 129.412 28.0543C129.412 27.5656 129.348 27.2217 129.221 27.0407C129.095 26.8597 128.85 26.7602 128.498 26.7602C128.145 26.7602 127.909 26.8507 127.774 27.0407C127.638 27.2127 127.574 27.5475 127.574 28.0453Z" fill="#143652"/><path d="M131.24 29.7284H130.742V26.38H131.24V26.6153C131.575 26.4162 131.901 26.3167 132.217 26.3167C132.634 26.3167 132.923 26.4343 133.086 26.6605C133.231 26.57 133.421 26.4886 133.656 26.4253C133.892 26.3529 134.1 26.3167 134.272 26.3167C134.715 26.3167 135.014 26.4343 135.177 26.6786C135.33 26.9139 135.403 27.3483 135.403 27.9637V29.7284H134.905V27.9728C134.905 27.5112 134.86 27.1854 134.769 27.0225C134.679 26.8506 134.489 26.7601 134.199 26.7601C134.054 26.7601 133.901 26.7782 133.747 26.8234C133.593 26.8687 133.466 26.9049 133.385 26.9501L133.258 27.0135C133.312 27.1583 133.349 27.4841 133.349 27.9909V29.7284H132.851V27.9999C132.851 27.5203 132.806 27.1945 132.724 27.0225C132.634 26.8506 132.444 26.7601 132.154 26.7601C132.009 26.7601 131.864 26.7782 131.72 26.8234C131.575 26.8687 131.457 26.9049 131.376 26.9501L131.258 27.0135V29.7284H131.24Z" fill="#143652"/><path d="M136.335 25.6289V25.0497H136.833V25.6289H136.335ZM136.335 29.7284V26.38H136.833V29.7284H136.335Z" fill="#143652"/><path d="M137.602 26.8326V26.3801H140.09V26.8326L138.217 29.2851H140.09V29.7376H137.602V29.2851L139.475 26.8326H137.602Z" fill="#143652"/><path d="M143.213 27.3936V29.104C143.231 29.2669 143.358 29.3664 143.602 29.4026L143.584 29.8008C143.231 29.8008 142.969 29.7103 142.788 29.5293C142.389 29.7103 141.982 29.8008 141.584 29.8008C141.276 29.8008 141.041 29.7103 140.878 29.5384C140.715 29.3664 140.634 29.113 140.634 28.7872C140.634 28.4615 140.715 28.2171 140.878 28.0633C141.041 27.9094 141.303 27.8099 141.656 27.7827L142.706 27.6832V27.3936C142.706 27.1673 142.661 27.0044 142.561 26.9049C142.462 26.8053 142.326 26.7601 142.163 26.7601C141.81 26.7601 141.439 26.7782 141.05 26.8234L140.842 26.8415L140.824 26.4615C141.313 26.3619 141.747 26.3167 142.127 26.3167C142.507 26.3167 142.779 26.4072 142.951 26.5791C143.132 26.751 143.213 27.0225 143.213 27.3936ZM141.15 28.7601C141.15 29.1673 141.322 29.3755 141.656 29.3755C141.964 29.3755 142.263 29.3212 142.552 29.2216L142.706 29.1673V28.0633L141.72 28.1538C141.521 28.1719 141.376 28.2262 141.285 28.3257C141.195 28.4252 141.15 28.5701 141.15 28.7601Z" fill="#143652"/><path d="M145.937 26.8236H144.869V28.4254C144.869 28.8055 144.896 29.0589 144.95 29.1856C145.004 29.3123 145.14 29.3666 145.348 29.3666L145.946 29.3304L145.982 29.7467C145.683 29.7919 145.457 29.8191 145.303 29.8191C144.959 29.8191 144.715 29.7376 144.579 29.5657C144.443 29.3937 144.38 29.077 144.38 28.5973V26.8326H143.9V26.3982H144.38V25.3756H144.878V26.3982H145.946V26.8236H145.937Z" fill="#143652"/><path d="M146.552 25.6289V25.0497H147.049V25.6289H146.552ZM146.552 29.7284V26.38H147.049V29.7284H146.552Z" fill="#143652"/><path d="M147.873 28.0543C147.873 27.4389 147.982 27.0045 148.199 26.733C148.416 26.4615 148.787 26.3258 149.303 26.3258C149.828 26.3258 150.19 26.4615 150.407 26.733C150.624 27.0045 150.733 27.448 150.733 28.0543C150.733 28.6607 150.633 29.1131 150.425 29.3846C150.217 29.6652 149.846 29.8009 149.303 29.8009C148.76 29.8009 148.38 29.6652 148.181 29.3846C147.973 29.1041 147.873 28.6607 147.873 28.0543ZM148.389 28.0453C148.389 28.5339 148.452 28.8778 148.57 29.0769C148.688 29.276 148.932 29.3756 149.312 29.3756C149.692 29.3756 149.936 29.276 150.054 29.086C150.172 28.8959 150.226 28.5521 150.226 28.0543C150.226 27.5656 150.163 27.2217 150.036 27.0407C149.909 26.8597 149.665 26.7602 149.312 26.7602C148.959 26.7602 148.724 26.8507 148.588 27.0407C148.452 27.2127 148.389 27.5475 148.389 28.0453Z" fill="#143652"/><path d="M152.063 29.7284H151.565V26.38H152.063V26.6153C152.425 26.4162 152.769 26.3167 153.104 26.3167C153.547 26.3167 153.855 26.4343 154.009 26.6786C154.163 26.923 154.235 27.3483 154.235 27.9637V29.7284H153.737V27.9728C153.737 27.5112 153.692 27.1854 153.602 27.0225C153.511 26.8506 153.312 26.7601 153.013 26.7601C152.869 26.7601 152.724 26.7782 152.561 26.8234C152.398 26.8687 152.28 26.9049 152.199 26.9501L152.072 27.0135V29.7284H152.063Z" fill="#143652"/><path d="M155.122 29.7286V28.9684H155.674V29.7286H155.122Z" fill="#143652"/></svg>