<svg width="16" height="16" viewBox="0 0 16 16" fill="none" xmlns="http://www.w3.org/2000/svg">
<g clip-path="url(#clip0_1150_275)">
<path d="M0 1.12C0 0.835555 0.115556 0.577778 0.346667 0.346666C0.577778 0.115555 0.853333 0 1.17333 0H14.8267C15.1467 0 15.4222 0.115555 15.6533 0.346666C15.8844 0.577778 16 0.835555 16 1.12V14.88C16 15.1644 15.8844 15.4222 15.6533 15.6533C15.4222 15.8844 15.1467 16 14.8267 16H1.17333C0.853333 16 0.577778 15.8844 0.346667 15.6533C0.115556 15.4222 0 15.1644 0 14.88V1.12ZM4.96 13.3867V6.18667H2.56V13.3867H4.96ZM3.73333 5.17333C4.16 5.17333 4.49778 5.05778 4.74667 4.82667C4.99556 4.59556 5.11111 4.30222 5.09333 3.94667C5.07556 3.59111 4.95111 3.28889 4.72 3.04C4.48889 2.79111 4.16889 2.66667 3.76 2.66667C3.35111 2.66667 3.02222 2.79111 2.77333 3.04C2.52444 3.28889 2.4 3.59111 2.4 3.94667C2.4 4.30222 2.52444 4.59556 2.77333 4.82667C3.02222 5.05778 3.34222 5.17333 3.73333 5.17333ZM8.64 13.3867V9.33333C8.64 9.08444 8.67556 8.88889 8.74667 8.74667C8.81778 8.53333 8.96 8.33778 9.17333 8.16C9.38667 7.98222 9.65333 7.89333 9.97333 7.89333C10.4 7.89333 10.7111 8.03556 10.9067 8.32C11.1022 8.60444 11.2 9.01333 11.2 9.54667V13.3867H13.6V9.22667C13.6 8.16 13.3422 7.35111 12.8267 6.8C12.3111 6.24889 11.6444 5.97333 10.8267 5.97333C10.2578 5.97333 9.77778 6.11556 9.38667 6.4C9.10222 6.57778 8.85333 6.84444 8.64 7.2V6.18667H6.24C6.27556 6.47111 6.27556 7.75111 6.24 10.0267V13.3867H8.64Z" fill="#08B86E"/>
</g>
<defs>
<clipPath id="clip0_1150_275">
<rect width="16" height="16" fill="white" transform="matrix(1 0 0 -1 0 16)"/>
</clipPath>
</defs>
</svg>
