<svg width="858" height="858" viewBox="0 0 858 858" fill="none" xmlns="http://www.w3.org/2000/svg">
<path d="M435 0C431.686 0 429 2.68629 429 6V214.5C429 332.912 332.912 429 214.5 429H6C2.6863 429 0 431.686 0 435V852C0 855.314 2.68629 858 6 858H423C426.314 858 429 855.314 429 852V643.5C429 525.088 525.088 429 643.5 429H852C855.314 429 858 426.314 858 423V5.99999C858 2.68628 855.314 0 852 0H435ZM214.5 819.662C117.441 819.662 38.3382 740.559 38.3382 643.5C38.3382 546.441 117.441 467.338 214.5 467.338C311.559 467.338 390.662 546.441 390.662 643.5C390.662 740.559 311.559 819.662 214.5 819.662ZM643.5 390.662C546.441 390.662 467.338 311.559 467.338 214.5C467.338 117.441 546.441 38.3383 643.5 38.3383C740.559 38.3383 819.662 117.441 819.662 214.5C819.662 311.559 740.559 390.662 643.5 390.662Z" fill="black"/>
</svg>
