<svg xmlns="http://www.w3.org/2000/svg" width="24" height="24" viewBox="0 0 24 24" fill="none"><path d="M4.05 21H3V15.125L8 14.1L10.9 17C11.5667 16.6167 12.1877 16.2043 12.763 15.763C13.3383 15.3217 13.8673 14.859 14.35 14.375C14.8667 13.875 15.35 13.3333 15.8 12.75C16.25 12.1667 16.6583 11.55 17.025 10.9L14.175 8.025L15.1 3H21V4.05C21 6.15 20.55 8.21667 19.65 10.25C18.75 12.2833 17.4667 14.1333 15.8 15.8C14.1333 17.4667 12.2793 18.75 10.238 19.65C8.19667 20.55 6.134 21 4.05 21ZM17.975 9C18.225 8.4 18.4333 7.77067 18.6 7.112C18.7667 6.45333 18.8917 5.74933 18.975 5H16.75L16.325 7.35L17.975 9ZM9.025 17.95L7.35 16.275L5 16.75V18.95C5.66667 18.9 6.33767 18.7917 7.013 18.625C7.68833 18.4583 8.359 18.2333 9.025 17.95Z" fill="white"/></svg>