<svg xmlns="http://www.w3.org/2000/svg" width="24" height="24" viewBox="0 0 24 24" fill="none"><path d="M2 6V1H7V3H4V6H2ZM20 6V3H17V1H22V6H20ZM2 23V18H4V21H7V23H2ZM17 23V21H20V18H22V23H17ZM7 18H17V6H7V18ZM7 20C6.45 20 5.97933 19.8043 5.588 19.413C5.19667 19.0217 5.00067 18.5507 5 18V6C5 5.45 5.196 4.97933 5.588 4.588C5.98 4.19667 6.45067 4.00067 7 4H17C17.55 4 18.021 4.196 18.413 4.588C18.805 4.98 19.0007 5.45067 19 6V18C19 18.55 18.8043 19.021 18.413 19.413C18.0217 19.805 17.5507 20.0007 17 20H7ZM9 10H15V8H9V10ZM9 13H15V11H9V13ZM9 16H15V14H9V16Z" fill="white"/></svg>