<svg xmlns="http://www.w3.org/2000/svg" width="33" height="32" viewBox="0 0 33 32" fill="none"><path d="M8.83333 2.66663C7.35333 2.66663 6.16667 3.85329 6.16667 5.33329V16C6.16667 17.48 7.35333 18.6666 8.83333 18.6666H24.8333C26.3133 18.6666 27.5 17.48 27.5 16V5.33329C27.5 3.85329 26.3133 2.66663 24.8333 2.66663H8.83333ZM8.83333 5.33329H24.8333V16H8.83333V5.33329ZM6.16667 20C4.68667 20 3.5 21.1866 3.5 22.6666V26.6666C3.5 28.1466 4.68667 29.3333 6.16667 29.3333H27.5C28.98 29.3333 30.1667 28.1466 30.1667 26.6666V22.6666C30.1667 21.1866 28.98 20 27.5 20H6.16667ZM11.5 22.6666H27.5V26.6666H11.5V22.6666ZM12.8333 23.6666V25.6666H18.1667V23.6666H12.8333ZM20.8333 23.6666V25.6666H26.1667V23.6666H20.8333Z" fill="white"/></svg>