<svg xmlns="http://www.w3.org/2000/svg" width="33" height="32" viewBox="0 0 33 32" fill="none"><path d="M12.8337 4C15.1322 4 17.3366 4.91309 18.9619 6.53841C20.5872 8.16372 21.5003 10.3681 21.5003 12.6667C21.5003 14.8133 20.7137 16.7867 19.4203 18.3067L19.7803 18.6667H20.8337L27.5003 25.3333L25.5003 27.3333L18.8337 20.6667V19.6133L18.4737 19.2533C16.9008 20.5953 14.9012 21.3327 12.8337 21.3333C10.5351 21.3333 8.33072 20.4202 6.7054 18.7949C5.08008 17.1696 4.16699 14.9652 4.16699 12.6667C4.16699 10.3681 5.08008 8.16372 6.7054 6.53841C8.33072 4.91309 10.5351 4 12.8337 4ZM12.8337 6.66667C9.50033 6.66667 6.83366 9.33333 6.83366 12.6667C6.83366 16 9.50033 18.6667 12.8337 18.6667C16.167 18.6667 18.8337 16 18.8337 12.6667C18.8337 9.33333 16.167 6.66667 12.8337 6.66667Z" fill="white"/></svg>