<svg xmlns="http://www.w3.org/2000/svg" width="33" height="32" viewBox="0 0 33 32" fill="none"><path d="M30.1667 12V9.33333H27.5V6.66667C27.5 5.95942 27.219 5.28115 26.7189 4.78105C26.2189 4.28095 25.5406 4 24.8333 4H6.16667C5.45942 4 4.78115 4.28095 4.28105 4.78105C3.78095 5.28115 3.5 5.95942 3.5 6.66667V25.3333C3.5 26.0406 3.78095 26.7189 4.28105 27.219C4.78115 27.719 5.45942 28 6.16667 28H24.8333C25.5406 28 26.2189 27.719 26.7189 27.219C27.219 26.7189 27.5 26.0406 27.5 25.3333V22.6667H30.1667V20H27.5V17.3333H30.1667V14.6667H27.5V12H30.1667ZM24.8333 25.3333H6.16667V6.66667H24.8333V25.3333ZM8.83333 17.3333H15.5V22.6667H8.83333V17.3333ZM16.8333 9.33333H22.1667V13.3333H16.8333V9.33333ZM8.83333 9.33333H15.5V16H8.83333V9.33333ZM16.8333 14.6667H22.1667V22.6667H16.8333V14.6667Z" fill="white"/></svg>