<svg xmlns="http://www.w3.org/2000/svg" width="33" height="32" viewBox="0 0 33 32" fill="none"><path d="M21.6471 5.85329V25.8533C21.6471 28.08 23.1671 29.3333 24.8338 29.3333C26.3538 29.3333 28.0205 28.28 28.0205 25.8533V5.99996C28.0205 3.94663 26.5005 2.66663 24.8338 2.66663C23.1671 2.66663 21.6471 4.07996 21.6471 5.85329ZM13.3138 16V25.8533C13.3138 28.0933 14.8605 29.3333 16.5005 29.3333C18.0205 29.3333 19.6871 28.28 19.6871 25.8533V16.1466C19.6871 14.0933 18.1671 12.8133 16.5005 12.8133C14.8338 12.8133 13.3138 14.2266 13.3138 16ZM8.16714 22.9733C9.92714 22.9733 11.3538 24.4 11.3538 26.1466C11.3538 26.9918 11.0181 27.8023 10.4204 28.3999C9.82283 28.9976 9.01229 29.3333 8.16714 29.3333C7.32198 29.3333 6.51144 28.9976 5.91382 28.3999C5.31621 27.8023 4.98047 26.9918 4.98047 26.1466C4.98047 24.4 6.40714 22.9733 8.16714 22.9733Z" fill="white"/></svg>