<svg xmlns="http://www.w3.org/2000/svg" width="33" height="32" viewBox="0 0 33 32" fill="none"><path d="M12.7797 8.37334L14.8997 12C11.4597 12.3467 8.83301 15.2133 8.83301 18.6667C8.83301 20.4348 9.53539 22.1305 10.7856 23.3807C12.0359 24.631 13.7316 25.3333 15.4997 25.3333C18.233 25.3333 20.5797 23.6933 21.6063 21.3333H18.1663V18.6667H28.833V21.3333H25.833C25.294 23.3976 24.1521 25.2544 22.553 26.6667H26.1663V29.3333H4.83301V26.6667H8.44634C7.31097 25.6659 6.40158 24.4349 5.77858 23.0556C5.15559 21.6763 4.83326 20.1802 4.83301 18.6667C4.83301 13.8267 8.11301 9.60001 12.7797 8.37334ZM17.153 2.76001L18.1663 4.49334L19.313 3.82668L23.9797 11.9067L19.353 14.5733L14.6863 6.49334L15.8463 5.82668L14.833 4.09334L17.153 2.76001Z" fill="white"/></svg>