<svg xmlns="http://www.w3.org/2000/svg" width="16" height="16" viewBox="0 0 16 16" fill="none"><path d="M10.9863 1.01333C11.2708 1.01333 11.5108 1.11111 11.7063 1.30667C11.9019 1.50222 11.9997 1.72444 11.9997 1.97333V13.9733C11.9997 14.2578 11.9019 14.4978 11.7063 14.6933C11.5108 14.8889 11.2708 14.9867 10.9863 14.9867H5.01299C4.72855 14.9867 4.48855 14.8889 4.29299 14.6933C4.09744 14.4978 3.99966 14.2578 3.99966 13.9733V1.97333C3.99966 1.72444 4.09744 1.50222 4.29299 1.30667C4.48855 1.11111 4.72855 1.01333 5.01299 1.01333H10.9863ZM5.01299 0C4.44411 0 3.96411 0.195555 3.57299 0.586666C3.18188 0.977777 2.98633 1.45778 2.98633 2.02667V13.9733C2.98633 14.5422 3.18188 15.0222 3.57299 15.4133C3.96411 15.8044 4.44411 16 5.01299 16H10.9863C11.5552 16 12.0352 15.8044 12.4263 15.4133C12.8174 15.0222 13.013 14.5422 13.013 13.9733V1.97333C13.013 1.44 12.8174 0.977777 12.4263 0.586666C12.0352 0.195555 11.5552 0 10.9863 0H5.01299ZM7.99966 13.9733C8.28411 13.9733 8.52411 13.8844 8.71966 13.7067C8.91522 13.5289 9.01299 13.2978 9.01299 13.0133C9.01299 12.7289 8.91522 12.4889 8.71966 12.2933C8.52411 12.0978 8.28411 12 7.99966 12C7.71522 12 7.47522 12.0978 7.27966 12.2933C7.08411 12.4889 6.98633 12.7289 6.98633 13.0133C6.98633 13.2978 7.08411 13.5289 7.27966 13.7067C7.47522 13.8844 7.71522 13.9733 7.99966 13.9733Z" fill="white"/></svg>